<?xml version="1.0" encoding="UTF-8"?> <svg xmlns="http://www.w3.org/2000/svg" id="Hey_beauty_" data-name="Hey, beauty!" viewBox="0 0 1164.2 290.8"><defs><style>.cls-1{fill:#1e212d;}</style></defs><path class="cls-1" d="M64.5,5.8l2.6,1.4,2.6-1.4c8.8,1.4,13.2,3.7,13.2,7l-21.1,96A258.43,258.43,0,0,1,100,106h6.6c9.2-63.1,17.6-94.6,25-94.6l2.6,1.4a8,8,0,0,1,4-1.4l1.3,2.8,2.6-1.4c1.3,0,3.5,2.8,6.6,8.3H150q-15.75,77.25-15.8,87.7c1.3,0,3.5,2.3,6.6,7q0,8-10.5,11.1L125,204.8l-4,2.8c0-.9-.4-1.4-1.3-1.4q0,3.15-10.5,4.2c-5.3-2.1-7.9-8.6-7.9-19.5v-25c0-10,.4-22.5,1.3-37.6-30.7,3.3-46.1,6-46.1,8.3-5.1,26.9-9.4,53.8-13.2,80.7-1.5,1.9-5.1,3.7-10.5,5.6v1.4c-9.7-3.9-14.5-12.8-14.5-26.4v-8.3c0-8.1,1.8-24.4,5.3-48.7L21,142.3H18.4c-8.8-4.9-13.2-10.9-13.2-18.1,16.7-5.6,25-9.7,25-12.5Q51.35,5.8,64.5,5.8Zm-38.2,167v5.6h1.3v-5.6Zm1.3-9.7v5.6h1.3v-5.6Zm1.3-8.4v5.6h1.3v-5.6Z" transform="translate(-5.2 -5.8)"></path><path class="cls-1" d="M186.9,105.3c22.8,2.8,34.2,11.1,34.2,25,0,15.1-9.7,23.4-29,25a141.75,141.75,0,0,1-14.5-1.4l-1.3,7v15.3c.9,9.3,2.6,13.9,5.3,13.9q17.1,0,63.2-45.9h2.6c.9,0,1.3.5,1.3,1.4l2.6-1.4c5.3,2.1,7.9,5.3,7.9,9.7q-47.1,52.95-71.1,52.9c-17.8,0-29.6-7.4-35.6-22.3-2.6-6.3-4-11.4-4-15.3V161c0-28.8,11.9-47.3,35.6-55.7Zm-6.6,36.2v2.8h10.5c10.5-2.5,15.8-7.7,15.8-15.3-1.3-6.5-3.5-9.7-6.6-9.7C191.7,124.6,185.2,132,180.3,141.5Z" transform="translate(-5.2 -5.8)"></path><path class="cls-1" d="M264,108.8c1.8.5,2.6,1.4,2.6,2.8l-5.3,9.7v1.4h1.3q4.65-10.8,6.6-11.1h4v2.8l2.6-1.4c4.4,2.6,6.6,6.7,6.6,12.5-5.1,14.6-9.4,29.5-13.2,44.5h1.3q7.5-8,40.8-58.4c1.8.5,2.6,1.4,2.6,2.8l2.6-1.4c7,0,11,8.8,11.9,26.4v27.8c18-14.8,29.4-22.3,34.2-22.3,6.1,1.4,9.2,3.3,9.2,5.6v1.4q0,2.4-17.1,11.1c-19.3,13.2-29,23.4-29,30.6q-12.45,103.05-54,103h-6.6c-10.5,0-15.8-5.6-15.8-16.7q5.55-26.85,47.4-82.1c2.8-18.6,5-36.6,6.6-54.3q-21.75,36.6-32.9,41.7c-12.3,0-20.6-7-25-20.9-.9-1.2-1.3-3.5-1.3-7v-4.2C244.2,136.9,250.8,122,264,108.8Zm1.3,172.6h1.3q16.5-16.35,23.7-47.3C275.6,254,267.2,269.8,265.3,281.4Z" transform="translate(-5.2 -5.8)"></path><path class="cls-1" d="M369.3,191.9a10.18,10.18,0,0,1,3-7.5,9.67,9.67,0,0,1,14,0,10.42,10.42,0,0,1,2.8,7.5c.2,1.9-.4,5-1.8,9.6a50.53,50.53,0,0,1-5.6,12.2c-2.3,3.6-4.3,4.9-6.1,4-.7-.2-1-.8-1.2-1.6a8.07,8.07,0,0,1,.2-3,11.54,11.54,0,0,1,1-3.3c.4-1,.9-2.3,1.5-3.8s.9-2.7,1.2-3.7a11.43,11.43,0,0,1-6.3-3.7A9.2,9.2,0,0,1,369.3,191.9Z" transform="translate(-5.2 -5.8)"></path><path class="cls-1" d="M516.1,36.4c0,.9.4,1.4,1.3,1.4l-1.3,2.8V42h1.3c.2-3.7,1.5-5.6,4-5.6,6.6,0,11.9,3.3,15.8,9.7,0,3.3-3.5,19-10.5,47.3-6.6,33.4-10.5,50.1-11.9,50.1,0-.9-.4-1.4-1.3-1.4v2.8h2.6v1.4a62.5,62.5,0,0,1-1.3,12.5v1.4h1.3q14.85-33.45,34.2-33.4h4c13.6,0,24.1,8.8,31.6,26.4,11.4-5.6,18.4-8.3,21.1-8.3h1.3q9.6,0,10.5,4.2v1.4c-1.1,1.9-12.1,7-32.9,15.3q-18.15,55.65-44.8,55.7H530.6c-5.3-2.5-7.9-6.3-7.9-11.1q0-17.1,36.9-44.5a62.5,62.5,0,0,1,1.3-12.5c-1.1-8.1-2.9-13.7-5.3-16.7-17.6,0-29.4,21.3-35.6,64,0,5.6-2.2,8.3-6.6,8.3a8.37,8.37,0,0,0-4-1.4c0,2.1-3.1,3.5-9.2,4.2L499,209l-2.6,1.4q-6.9,0-11.9-57.1v-1.4q0-60.15,21.1-107.2C509.5,39.2,513,36.4,516.1,36.4Zm-4,12.6c0,.5-2.2,6-6.6,16.7V67h1.3c0-2.3,2.2-7.9,6.6-16.7V49Z" transform="translate(-5.2 -5.8)"></path><path class="cls-1" d="M644.1,105.3c22.8,2.8,34.2,11.1,34.2,25,0,15.1-9.7,23.4-29,25a141.75,141.75,0,0,1-14.5-1.4l-1.3,7v15.3c.9,9.3,2.6,13.9,5.3,13.9q17.1,0,63.2-45.9h2.6c.9,0,1.3.5,1.3,1.4l2.6-1.4c5.3,2.1,7.9,5.3,7.9,9.7q-47.1,52.95-71.1,52.9c-17.8,0-29.6-7.4-35.6-22.3-2.6-6.3-4-11.4-4-15.3V161c0-28.8,11.9-47.3,35.6-55.7Zm-6.5,36.2v2.8h10.5c10.5-2.5,15.8-7.7,15.8-15.3-1.3-6.5-3.5-9.7-6.6-9.7A55.31,55.31,0,0,0,637.6,141.5Z" transform="translate(-5.2 -5.8)"></path><path class="cls-1" d="M739.3,108.4h1.3c5.3,0,12.3,4.6,21.1,13.9,3.7-3.7,5.9-5.6,6.6-5.6,1.8.5,2.6,1.4,2.6,2.8a8.05,8.05,0,0,1,3.9-1.4c6.1,2.8,9.2,7,9.2,12.5q-6.6,30.6-6.6,39v7H780q8.85,0,35.6-32c1.8.5,2.6,1.4,2.6,2.8l2.6-1.4c5.3,3.3,7.9,5.6,7.9,7v5.6q-30,34.8-43.5,34.8-35.55,0-35.6-37.6h-1.3q-18.75,30.3-29,43.1c-16.7,0-25-6-25-18.1C702,132.6,716.9,108.4,739.3,108.4Zm-17.1,15.4-2.6,4.2h1.3l2.6-4.2Zm5.2,38.9v1.4h1.3c.2-4.2,8.6-14.4,25-30.6-1.8-3.2-2.6-5.6-2.6-7h-2.6C739.3,133.5,732.2,145.6,727.4,162.7Z" transform="translate(-5.2 -5.8)"></path><path class="cls-1" d="M831.1,109.1l1.3,2.8-1.3,2.8v1.4h1.3c.2-3.7,1.5-5.6,4-5.6,6.1,3.7,9.2,7.9,9.2,12.5a183.87,183.87,0,0,0-9.2,57.1v7q13.2-17.7,43.5-72.4l2.6-1.4h2.6v5.6h1.3c0-2.8.9-4.2,2.6-4.2q11.55,5.25,13.2,11.1c-5.3,20.9-7.9,36.6-7.9,47.3v1.4q10.2-2.4,34.2-30.6c7.9,1.6,11.9,3.5,11.9,5.6v4.2c-16.5,26-29.6,39-39.5,39-16.7,0-27.7-5.1-32.9-15.3a18.59,18.59,0,0,1-2.6-9.7h-2.6q-5.25,20.25-23.7,41.7c-19.3,0-29-8.4-29-25,0-29.9,6.6-55,19.8-75.1h1.2Z" transform="translate(-5.2 -5.8)"></path><path class="cls-1" d="M971.7,20.4l1.3,2.8c3.1-1.9,5.3-2.8,6.6-2.8,6.1,3.5,9.2,5.8,9.2,7a23,23,0,0,0,1.3,5.6c-4.8,10.7-9.2,21.8-13.2,33.4h22.4c15.8.7,25,3.9,27.7,9.7v1.4c0,1.9-1.3,2.8-4,2.8-7,0-17.6-.5-31.6-1.4-14,0-21.1,2.8-21.1,8.3q-13.2,51.45-13.2,123.9c14.7-26,30.1-48.2,46.1-66.8h9.2c1.3,0,2.6,1.4,4,4.2v1.4q-30,29.55-48.7,76.5c0,8.3-6.6,13.9-19.8,16.7q-22.35,0-22.4-50.1,0-51.45,14.5-108.5c-2.6,0-12.7,3.3-30.3,9.7q-5,0-13.2-4.2V88.6c0-5.3,14-11.4,42.1-18.1,5.9,0,9.9-5.6,11.8-16.7C957.8,36,964.9,24.8,971.7,20.4ZM954.5,62.2a8.73,8.73,0,0,1-1.3,4.2v1.4h1.3a9,9,0,0,1,1.3-4.2V62.2Zm4-9.8a8.73,8.73,0,0,1-1.3,4.2V58h1.3a9,9,0,0,1,1.3-4.2V52.4Zm6.6-15.3c0,2.1-1.3,5.3-4,9.7v1.4h1.3c0-2.1,1.3-5.3,4-9.7V37.1Z" transform="translate(-5.2 -5.8)"></path><path class="cls-1" d="M1022.4,108.8c1.8.5,2.6,1.4,2.6,2.8l-5.3,9.7v1.4h1.3q4.65-10.8,6.6-11.1h4v2.8l2.6-1.4c4.4,2.6,6.6,6.7,6.6,12.5-5.1,14.6-9.4,29.5-13.2,44.5h1.3c5-5.3,18.7-24.8,40.8-58.4,1.8.5,2.6,1.4,2.6,2.8l2.6-1.4c7,0,11,8.8,11.9,26.4v27.8c18-14.8,29.4-22.3,34.2-22.3,6.1,1.4,9.2,3.3,9.2,5.6v1.4q0,2.4-17.1,11.1c-19.3,13.2-29,23.4-29,30.6q-12.45,103.05-54,103h-6.6c-10.5,0-15.8-5.6-15.8-16.7q5.55-26.85,47.4-82.1c2.8-18.6,5-36.6,6.6-54.3q-21.75,36.6-32.9,41.7c-12.3,0-20.6-7-25-20.9-.9-1.2-1.3-3.5-1.3-7v-4.2C1002.6,136.9,1009.2,122,1022.4,108.8Zm1.3,172.6h1.3q16.5-16.35,23.7-47.3C1034,254,1025.6,269.8,1023.7,281.4Z" transform="translate(-5.2 -5.8)"></path><path class="cls-1" d="M1126,207.6a12.87,12.87,0,0,1,3.5-9,11.36,11.36,0,0,1,8.7-3.8,11.77,11.77,0,0,1,8.6,3.8,12.87,12.87,0,0,1,3.6,9,12.51,12.51,0,0,1-3.6,9.2,11.89,11.89,0,0,1-8.6,3.7,11.27,11.27,0,0,1-8.7-3.7A12.84,12.84,0,0,1,1126,207.6Zm18.5-195.5c1.8,0,2.6,3.7,2.6,11.1h1.3l2.6-9.7h2.6c1.8.5,2.6,1.4,2.6,2.8a8,8,0,0,1,4-1.4l9.2,8.3v1.4q0,39.6-18.4,157.3l-2.6,1.4-2.6-1.4c0,2.6-3.5,4.4-10.5,5.6a11.3,11.3,0,0,1-1.3-5.6h-1.3c0,2.8-.9,4.2-2.6,4.2-1.1-2.8-2-4.2-2.6-4.2Q1133.2,12.1,1144.5,12.1Z" transform="translate(-5.2 -5.8)"></path></svg> 